<?xml version="1.0" standalone="no"?>
<!DOCTYPE svg PUBLIC "-//W3C//DTD SVG 20010904//EN"
 "http://www.w3.org/TR/2001/REC-SVG-20010904/DTD/svg10.dtd">
<svg version="1.0" xmlns="http://www.w3.org/2000/svg"
 width="200.000000pt" height="200.000000pt" viewBox="0 0 200.000000 200.000000"
 preserveAspectRatio="xMidYMid meet">
<metadata>
Created by potrace 1.11, written by Peter Selinger 2001-2013
</metadata>
<g transform="translate(0.000000,200.000000) scale(0.100000,-0.100000)"
fill="#000000" stroke="none">
<path d="M875 1893 c-11 -2 -55 -13 -98 -24 -313 -78 -565 -330 -648 -647 -29
-108 -33 -289 -9 -402 66 -317 293 -571 603 -675 108 -36 136 -40 292 -39 122
1 152 4 228 28 299 90 526 312 617 601 30 97 35 141 34 285 0 97 -5 143 -23
204 -96 343 -360 590 -706 662 -37 7 -262 13 -290 7z m265 -68 c330 -59 588
-301 672 -629 29 -113 29 -289 -1 -401 -61 -230 -206 -416 -412 -529 -185
-101 -409 -129 -609 -76 -557 149 -803 804 -481 1279 128 189 328 317 555 355
71 13 210 13 276 1z"/>
<path d="M840 1795 c-310 -64 -551 -298 -627 -610 -18 -76 -24 -221 -12 -304
23 -160 111 -333 229 -452 158 -159 352 -241 570 -239 145 0 235 21 357 80 78
38 202 129 249 182 104 117 181 280 201 423 59 420 -202 812 -610 914 -88 22
-265 25 -357 6z"/>
</g>
</svg>
