<?xml version="1.0" standalone="no"?>
<!DOCTYPE svg PUBLIC "-//W3C//DTD SVG 20010904//EN"
 "http://www.w3.org/TR/2001/REC-SVG-20010904/DTD/svg10.dtd">
<svg version="1.0" xmlns="http://www.w3.org/2000/svg"
 width="200.000000pt" height="200.000000pt" viewBox="0 0 200.000000 200.000000"
 preserveAspectRatio="xMidYMid meet">
<metadata>
Created by potrace 1.11, written by Peter Selinger 2001-2013
</metadata>
<g transform="translate(0.000000,200.000000) scale(0.100000,-0.100000)"
fill="#000000" stroke="none">
<path d="M875 1893 c-11 -2 -55 -13 -98 -24 -313 -78 -565 -330 -648 -647 -29
-108 -33 -289 -9 -402 66 -317 293 -571 603 -675 106 -35 136 -39 287 -39 110
0 150 4 214 22 310 88 544 312 636 607 30 97 35 141 34 285 0 97 -5 143 -23
204 -96 343 -360 590 -706 662 -37 7 -262 13 -290 7z m259 -67 c228 -38 437
-175 565 -370 50 -77 105 -203 116 -267 3 -19 10 -50 14 -69 13 -64 4 -240
-18 -325 -54 -209 -197 -402 -378 -511 -58 -35 -187 -88 -239 -99 -197 -40
-388 -20 -547 57 -166 81 -297 204 -381 360 -174 322 -119 720 136 978 65 66
88 85 153 127 95 60 220 107 320 118 27 4 51 7 52 9 5 5 168 -1 207 -8z"/>
<path d="M918 1805 c-2 -2 -24 -6 -49 -9 -239 -32 -481 -213 -593 -443 -73
-150 -97 -311 -73 -485 41 -294 277 -566 567 -650 93 -27 132 -32 245 -31 458
2 818 384 799 847 -16 377 -294 694 -669 761 -62 11 -218 18 -227 10z"/>
</g>
</svg>
